<?xml version="1.0" encoding="utf-8" ?><svg xmlns="http://www.w3.org/2000/svg" xmlns:ev="http://www.w3.org/2001/xml-events" xmlns:xlink="http://www.w3.org/1999/xlink" width="100%" height="100%" baseProfile="full" version="1.1" viewBox="0 0 300 300"><rect width="100%" height="100%" fill="#fff"/><rect x="0" y="0" width="30" height="30" fill="#55efc4"/><rect x="30" y="0" width="30" height="30" fill="#81ecec"/><rect x="60" y="0" width="30" height="30" fill="#74b9ff"/><rect x="90" y="0" width="30" height="30" fill="#a29bfe"/><rect x="120" y="0" width="30" height="30" fill="#dfe6e9"/><rect x="150" y="0" width="30" height="30" fill="#00b894"/><rect x="180" y="0" width="30" height="30" fill="#00cec9"/><rect x="210" y="0" width="30" height="30" fill="#0984e3"/><rect x="240" y="0" width="30" height="30" fill="#6c5ce7"/><rect x="270" y="0" width="30" height="30" fill="#b2bec3"/><rect x="0" y="30" width="30" height="30" fill="#ffeaa7"/><rect x="30" y="30" width="30" height="30" fill="#fab1a0"/><rect x="60" y="30" width="30" height="30" fill="#ff7675"/><rect x="90" y="30" width="30" height="30" fill="#fd79a8"/><rect x="120" y="30" width="30" height="30" fill="#636e72"/><rect x="150" y="30" width="30" height="30" fill="#fdcb6e"/><rect x="180" y="30" width="30" height="30" fill="#e17055"/><rect x="210" y="30" width="30" height="30" fill="#d63031"/><rect x="240" y="30" width="30" height="30" fill="#e84393"/><rect x="270" y="30" width="30" height="30" fill="#2d3436"/><rect x="0" y="60" width="30" height="30" fill="#ffffff"/><rect x="30" y="60" width="30" height="30" fill="c22"/><rect x="60" y="60" width="30" height="30" fill="c23"/><rect x="90" y="60" width="30" height="30" fill="c24"/><rect x="120" y="60" width="30" height="30" fill="c25"/><rect x="150" y="60" width="30" height="30" fill="c26"/><rect x="180" y="60" width="30" height="30" fill="c27"/><rect x="210" y="60" width="30" height="30" fill="c28"/><rect x="240" y="60" width="30" height="30" fill="c29"/><rect x="270" y="60" width="30" height="30" fill="c30"/><rect x="0" y="90" width="30" height="30" fill="c31"/><rect x="30" y="90" width="30" height="30" fill="c32"/><rect x="60" y="90" width="30" height="30" fill="c33"/><rect x="90" y="90" width="30" height="30" fill="c34"/><rect x="120" y="90" width="30" height="30" fill="c35"/><rect x="150" y="90" width="30" height="30" fill="c36"/><rect x="180" y="90" width="30" height="30" fill="c37"/><rect x="210" y="90" width="30" height="30" fill="c38"/><rect x="240" y="90" width="30" height="30" fill="c39"/><rect x="270" y="90" width="30" height="30" fill="c40"/><rect x="0" y="120" width="30" height="30" fill="c41"/><rect x="30" y="120" width="30" height="30" fill="c42"/><rect x="60" y="120" width="30" height="30" fill="c43"/><rect x="90" y="120" width="30" height="30" fill="c44"/><rect x="120" y="120" width="30" height="30" fill="c45"/><rect x="150" y="120" width="30" height="30" fill="c46"/><rect x="180" y="120" width="30" height="30" fill="c47"/><rect x="210" y="120" width="30" height="30" fill="c48"/><rect x="240" y="120" width="30" height="30" fill="c49"/><rect x="270" y="120" width="30" height="30" fill="c50"/><rect x="0" y="150" width="30" height="30" fill="c51"/><rect x="30" y="150" width="30" height="30" fill="c52"/><rect x="60" y="150" width="30" height="30" fill="c53"/><rect x="90" y="150" width="30" height="30" fill="c54"/><rect x="120" y="150" width="30" height="30" fill="c55"/><rect x="150" y="150" width="30" height="30" fill="c56"/><rect x="180" y="150" width="30" height="30" fill="c57"/><rect x="210" y="150" width="30" height="30" fill="c58"/><rect x="240" y="150" width="30" height="30" fill="c59"/><rect x="270" y="150" width="30" height="30" fill="c60"/><rect x="0" y="180" width="30" height="30" fill="c61"/><rect x="30" y="180" width="30" height="30" fill="c62"/><rect x="60" y="180" width="30" height="30" fill="c63"/><rect x="90" y="180" width="30" height="30" fill="c64"/><rect x="120" y="180" width="30" height="30" fill="c65"/><rect x="150" y="180" width="30" height="30" fill="c66"/><rect x="180" y="180" width="30" height="30" fill="c67"/><rect x="210" y="180" width="30" height="30" fill="c68"/><rect x="240" y="180" width="30" height="30" fill="c69"/><rect x="270" y="180" width="30" height="30" fill="c70"/><rect x="0" y="210" width="30" height="30" fill="c71"/><rect x="30" y="210" width="30" height="30" fill="c72"/><rect x="60" y="210" width="30" height="30" fill="c73"/><rect x="90" y="210" width="30" height="30" fill="c74"/><rect x="120" y="210" width="30" height="30" fill="c75"/><rect x="150" y="210" width="30" height="30" fill="c76"/><rect x="180" y="210" width="30" height="30" fill="c77"/><rect x="210" y="210" width="30" height="30" fill="c78"/><rect x="240" y="210" width="30" height="30" fill="c79"/><rect x="270" y="210" width="30" height="30" fill="c80"/><rect x="0" y="240" width="30" height="30" fill="c81"/><rect x="30" y="240" width="30" height="30" fill="c82"/><rect x="60" y="240" width="30" height="30" fill="c83"/><rect x="90" y="240" width="30" height="30" fill="c84"/><rect x="120" y="240" width="30" height="30" fill="c85"/><rect x="150" y="240" width="30" height="30" fill="c86"/><rect x="180" y="240" width="30" height="30" fill="c87"/><rect x="210" y="240" width="30" height="30" fill="c88"/><rect x="240" y="240" width="30" height="30" fill="c89"/><rect x="270" y="240" width="30" height="30" fill="c90"/><rect x="0" y="270" width="30" height="30" fill="c91"/><rect x="30" y="270" width="30" height="30" fill="c92"/><rect x="60" y="270" width="30" height="30" fill="c93"/><rect x="90" y="270" width="30" height="30" fill="c94"/><rect x="120" y="270" width="30" height="30" fill="c95"/><rect x="150" y="270" width="30" height="30" fill="c96"/><rect x="180" y="270" width="30" height="30" fill="c97"/><rect x="210" y="270" width="30" height="30" fill="c98"/><rect x="240" y="270" width="30" height="30" fill="c99"/><rect x="270" y="270" width="30" height="30" fill="c100"/><text x="0" y="30" font-family="Menlo" font-size="7" fill="#2d3436"> c1</text><text x="30" y="30" font-family="Menlo" font-size="7" fill="#2d3436"> c2</text><text x="60" y="30" font-family="Menlo" font-size="7" fill="#2d3436"> c3</text><text x="90" y="30" font-family="Menlo" font-size="7" fill="#2d3436"> c4</text><text x="120" y="30" font-family="Menlo" font-size="7" fill="#2d3436"> c5</text><text x="150" y="30" font-family="Menlo" font-size="7" fill="#2d3436"> c6</text><text x="180" y="30" font-family="Menlo" font-size="7" fill="#2d3436"> c7</text><text x="210" y="30" font-family="Menlo" font-size="7" fill="#2d3436"> c8</text><text x="240" y="30" font-family="Menlo" font-size="7" fill="#2d3436"> c9</text><text x="270" y="30" font-family="Menlo" font-size="7" fill="#2d3436"> c10</text><text x="0" y="60" font-family="Menlo" font-size="7" fill="#2d3436"> c11</text><text x="30" y="60" font-family="Menlo" font-size="7" fill="#2d3436"> c12</text><text x="60" y="60" font-family="Menlo" font-size="7" fill="#2d3436"> c13</text><text x="90" y="60" font-family="Menlo" font-size="7" fill="#2d3436"> c14</text><text x="120" y="60" font-family="Menlo" font-size="7" fill="#2d3436"> c15</text><text x="150" y="60" font-family="Menlo" font-size="7" fill="#2d3436"> c16</text><text x="180" y="60" font-family="Menlo" font-size="7" fill="#2d3436"> c17</text><text x="210" y="60" font-family="Menlo" font-size="7" fill="#2d3436"> c18</text><text x="240" y="60" font-family="Menlo" font-size="7" fill="#2d3436"> c19</text><text x="270" y="60" font-family="Menlo" font-size="7" fill="#2d3436"> c20</text><text x="0" y="90" font-family="Menlo" font-size="7" fill="#2d3436"> c21</text><text x="30" y="90" font-family="Menlo" font-size="7" fill="#2d3436"> c22</text><text x="60" y="90" font-family="Menlo" font-size="7" fill="#2d3436"> c23</text><text x="90" y="90" font-family="Menlo" font-size="7" fill="#2d3436"> c24</text><text x="120" y="90" font-family="Menlo" font-size="7" fill="#2d3436"> c25</text><text x="150" y="90" font-family="Menlo" font-size="7" fill="#2d3436"> c26</text><text x="180" y="90" font-family="Menlo" font-size="7" fill="#2d3436"> c27</text><text x="210" y="90" font-family="Menlo" font-size="7" fill="#2d3436"> c28</text><text x="240" y="90" font-family="Menlo" font-size="7" fill="#2d3436"> c29</text><text x="270" y="90" font-family="Menlo" font-size="7" fill="#2d3436"> c30</text><text x="0" y="120" font-family="Menlo" font-size="7" fill="#2d3436"> c31</text><text x="30" y="120" font-family="Menlo" font-size="7" fill="#2d3436"> c32</text><text x="60" y="120" font-family="Menlo" font-size="7" fill="#2d3436"> c33</text><text x="90" y="120" font-family="Menlo" font-size="7" fill="#2d3436"> c34</text><text x="120" y="120" font-family="Menlo" font-size="7" fill="#2d3436"> c35</text><text x="150" y="120" font-family="Menlo" font-size="7" fill="#2d3436"> c36</text><text x="180" y="120" font-family="Menlo" font-size="7" fill="#2d3436"> c37</text><text x="210" y="120" font-family="Menlo" font-size="7" fill="#2d3436"> c38</text><text x="240" y="120" font-family="Menlo" font-size="7" fill="#2d3436"> c39</text><text x="270" y="120" font-family="Menlo" font-size="7" fill="#2d3436"> c40</text><text x="0" y="150" font-family="Menlo" font-size="7" fill="#2d3436"> c41</text><text x="30" y="150" font-family="Menlo" font-size="7" fill="#2d3436"> c42</text><text x="60" y="150" font-family="Menlo" font-size="7" fill="#2d3436"> c43</text><text x="90" y="150" font-family="Menlo" font-size="7" fill="#2d3436"> c44</text><text x="120" y="150" font-family="Menlo" font-size="7" fill="#2d3436"> c45</text><text x="150" y="150" font-family="Menlo" font-size="7" fill="#2d3436"> c46</text><text x="180" y="150" font-family="Menlo" font-size="7" fill="#2d3436"> c47</text><text x="210" y="150" font-family="Menlo" font-size="7" fill="#2d3436"> c48</text><text x="240" y="150" font-family="Menlo" font-size="7" fill="#2d3436"> c49</text><text x="270" y="150" font-family="Menlo" font-size="7" fill="#2d3436"> c50</text><text x="0" y="180" font-family="Menlo" font-size="7" fill="#2d3436"> c51</text><text x="30" y="180" font-family="Menlo" font-size="7" fill="#2d3436"> c52</text><text x="60" y="180" font-family="Menlo" font-size="7" fill="#2d3436"> c53</text><text x="90" y="180" font-family="Menlo" font-size="7" fill="#2d3436"> c54</text><text x="120" y="180" font-family="Menlo" font-size="7" fill="#2d3436"> c55</text><text x="150" y="180" font-family="Menlo" font-size="7" fill="#2d3436"> c56</text><text x="180" y="180" font-family="Menlo" font-size="7" fill="#2d3436"> c57</text><text x="210" y="180" font-family="Menlo" font-size="7" fill="#2d3436"> c58</text><text x="240" y="180" font-family="Menlo" font-size="7" fill="#2d3436"> c59</text><text x="270" y="180" font-family="Menlo" font-size="7" fill="#2d3436"> c60</text><text x="0" y="210" font-family="Menlo" font-size="7" fill="#2d3436"> c61</text><text x="30" y="210" font-family="Menlo" font-size="7" fill="#2d3436"> c62</text><text x="60" y="210" font-family="Menlo" font-size="7" fill="#2d3436"> c63</text><text x="90" y="210" font-family="Menlo" font-size="7" fill="#2d3436"> c64</text><text x="120" y="210" font-family="Menlo" font-size="7" fill="#2d3436"> c65</text><text x="150" y="210" font-family="Menlo" font-size="7" fill="#2d3436"> c66</text><text x="180" y="210" font-family="Menlo" font-size="7" fill="#2d3436"> c67</text><text x="210" y="210" font-family="Menlo" font-size="7" fill="#2d3436"> c68</text><text x="240" y="210" font-family="Menlo" font-size="7" fill="#2d3436"> c69</text><text x="270" y="210" font-family="Menlo" font-size="7" fill="#2d3436"> c70</text><text x="0" y="240" font-family="Menlo" font-size="7" fill="#2d3436"> c71</text><text x="30" y="240" font-family="Menlo" font-size="7" fill="#2d3436"> c72</text><text x="60" y="240" font-family="Menlo" font-size="7" fill="#2d3436"> c73</text><text x="90" y="240" font-family="Menlo" font-size="7" fill="#2d3436"> c74</text><text x="120" y="240" font-family="Menlo" font-size="7" fill="#2d3436"> c75</text><text x="150" y="240" font-family="Menlo" font-size="7" fill="#2d3436"> c76</text><text x="180" y="240" font-family="Menlo" font-size="7" fill="#2d3436"> c77</text><text x="210" y="240" font-family="Menlo" font-size="7" fill="#2d3436"> c78</text><text x="240" y="240" font-family="Menlo" font-size="7" fill="#2d3436"> c79</text><text x="270" y="240" font-family="Menlo" font-size="7" fill="#2d3436"> c80</text><text x="0" y="270" font-family="Menlo" font-size="7" fill="#2d3436"> c81</text><text x="30" y="270" font-family="Menlo" font-size="7" fill="#2d3436"> c82</text><text x="60" y="270" font-family="Menlo" font-size="7" fill="#2d3436"> c83</text><text x="90" y="270" font-family="Menlo" font-size="7" fill="#2d3436"> c84</text><text x="120" y="270" font-family="Menlo" font-size="7" fill="#2d3436"> c85</text><text x="150" y="270" font-family="Menlo" font-size="7" fill="#2d3436"> c86</text><text x="180" y="270" font-family="Menlo" font-size="7" fill="#2d3436"> c87</text><text x="210" y="270" font-family="Menlo" font-size="7" fill="#2d3436"> c88</text><text x="240" y="270" font-family="Menlo" font-size="7" fill="#2d3436"> c89</text><text x="270" y="270" font-family="Menlo" font-size="7" fill="#2d3436"> c90</text><text x="0" y="300" font-family="Menlo" font-size="7" fill="#2d3436"> c91</text><text x="30" y="300" font-family="Menlo" font-size="7" fill="#2d3436"> c92</text><text x="60" y="300" font-family="Menlo" font-size="7" fill="#2d3436"> c93</text><text x="90" y="300" font-family="Menlo" font-size="7" fill="#2d3436"> c94</text><text x="120" y="300" font-family="Menlo" font-size="7" fill="#2d3436"> c95</text><text x="150" y="300" font-family="Menlo" font-size="7" fill="#2d3436"> c96</text><text x="180" y="300" font-family="Menlo" font-size="7" fill="#2d3436"> c97</text><text x="210" y="300" font-family="Menlo" font-size="7" fill="#2d3436"> c98</text><text x="240" y="300" font-family="Menlo" font-size="7" fill="#2d3436"> c99</text><text x="270" y="300" font-family="Menlo" font-size="7" fill="#2d3436"> c100</text></svg>